# xmcd CD database file
#
# Track frame offsets:
#	150
#	10540
#	22429
#	38352
#	50024
#	66340
#	77639
#	93449
#	103273
#	123658
#	134141
#	148603
#	160758
#	172210
#	184869
#	199383
#
# Disc length: 2805 seconds
#
# Revision: 0
# Processed by: cddbd v1.5.1PL0 Copyright (c) Steve Scherf et al.
# Submitted via: CDex 1.51
#
DISCID=ee0af310
DTITLE=Dave Pell - Plays Burke And Van Heusen
DYEAR=1953
DGENRE=Jazz
TTITLE0=But Beautiful
TTITLE1=My Heart Is A Hobo
TTITLE2=Like Someone In Love
TTITLE3=Swingin' On A Star
TTITLE4=Suddenly Its Spring
TTITLE5=It's Always You
TTITLE6=What Does It Take
TTITLE7=Aren't You Glad You're You
TTITLE8=All This And Heaven Too
TTITLE9=It Could Happen To You
TTITLE10=Just My Luck
TTITLE11=Imagination
TTITLE12=When Is Sometime
TTITLE13=Darn That Dream
TTITLE14=Humpty Dumpty Heart
TTITLE15=Polka Dots And Moonbeams
EXTD=YEAR: 1953
EXTT0=
EXTT1=
EXTT2=
EXTT3=
EXTT4=
EXTT5=
EXTT6=
EXTT7=
EXTT8=
EXTT9=
EXTT10=
EXTT11=
EXTT12=
EXTT13=
EXTT14=
EXTT15=
PLAYORDER=
